<svg width="40" height="43" viewBox="0 0 40 43" fill="none" xmlns="http://www.w3.org/2000/svg">
<path d="M9.88887 36.6112L9.88763 27.2709C8.2255 25.786 6.96308 23.9101 6.21298 21.8135C5.46292 19.7167 5.25024 17.4661 5.59236 15.2663C5.93591 13.0669 6.82467 10.9884 8.1772 9.21997C9.52973 7.45158 11.3047 6.05009 13.339 5.14263C15.3719 4.23479 17.6025 3.85063 19.8233 4.02425C22.0442 4.19787 24.1876 4.9243 26.0564 6.13688C27.9251 7.34946 29.4603 9.00986 30.5242 10.9673C31.5867 12.9243 32.1425 15.1158 32.1404 17.3419L32.141 18.8247L35.1096 24.7557L32.1425 26.2377L32.1443 30.6858C32.144 31.472 31.8314 32.2261 31.2753 32.7822C30.7192 33.3383 29.9642 33.6505 29.1777 33.6505L23.2424 33.6489L23.2421 36.614" fill="white"/>
</svg>
