<svg width="current" height="current" viewBox="0 0 44 46" fill="current" xmlns="http://www.w3.org/2000/svg">
<path d="M11.647 38.4937L11.6458 28.9266C9.9433 27.4056 8.65022 25.4842 7.88192 23.3367C7.11365 21.189 6.8958 18.8838 7.24622 16.6306C7.59811 14.3777 8.50845 12.2487 9.89382 10.4374C11.2792 8.62609 13.0972 7.19058 15.181 6.26109C17.2632 5.33121 19.5479 4.93772 21.8227 5.11556C24.0975 5.29339 26.293 6.03746 28.2071 7.27948C30.1212 8.5215 31.6937 10.2222 32.7834 12.2271C33.8717 14.2317 34.4409 16.4763 34.4389 18.7566L34.4394 20.2754L37.4801 26.3503L34.441 27.8683L34.4428 32.4244C34.4425 33.2297 34.1223 34.0021 33.5527 34.5717C32.9831 35.1413 32.2098 35.4611 31.4042 35.461L25.3247 35.4595L25.3244 38.4965" stroke="#0F0F0F" stroke-width="2" stroke-miterlimit="10" stroke-linecap="square"/>
<path d="M28.5199 20.037C29.3588 20.037 30.0397 19.3572 30.0397 18.5185C30.0397 17.68 29.3588 17 28.5199 17C27.6809 17 27 17.68 27 18.5185C27 19.3572 27.6809 20.037 28.5199 20.037Z" fill="#CF3636"/>
</svg>
