<svg width="378" height="60" viewBox="0 0 378 60" fill="none" xmlns="http://www.w3.org/2000/svg">
<path d="M324.403 4.53455L326.612 19.8657L313.141 15.4217L318.014 28.8752L306.49 32.9272L320.572 38.1754L316.777 50.8135L329.338 46.8443L334.372 59.5919L341.765 48.6835L352.307 54.3924L349.48 41.5366L361.777 42.7557L356.688 35.0108L370.258 29.3802L359.052 22.4848L361.041 10.4437L348.899 11.5668L345.677 0.434448L336.888 11.3368L324.403 4.53455Z" fill="#CF3636"/>
<path d="M26.2403 36.4686C26.1433 38.5723 25.5754 40.4339 24.5364 42.0532C23.4974 43.6588 22.0359 44.9044 20.1519 45.7902C18.2817 46.6761 16.1415 47.1189 13.7311 47.1189C9.75535 47.1189 6.6246 45.8248 4.33889 43.2366C2.05318 40.6485 0.9104 36.9945 0.9104 32.2747V30.7801C0.9104 27.818 1.4229 25.2299 2.44804 23.0154C3.48701 20.787 4.97617 19.0708 6.9155 17.8667C8.85499 16.6487 11.0991 16.0397 13.648 16.0397C17.3191 16.0397 20.2697 17.0085 22.4999 18.9463C24.7303 20.8701 25.9979 23.5275 26.3026 26.9185H19.0298C18.9745 25.0776 18.5103 23.7559 17.6376 22.9532C16.7649 22.1503 15.4351 21.749 13.648 21.749C11.8333 21.749 10.5034 22.4272 9.65839 23.7835C8.81335 25.14 8.37016 27.306 8.32851 30.2817V32.4201C8.32851 35.6449 8.73021 37.9495 9.53376 39.3336C10.351 40.7176 11.7502 41.4097 13.7311 41.4097C15.4074 41.4097 16.6888 41.0152 17.5753 40.2263C18.4618 39.4373 18.9328 38.1848 18.9883 36.4686H26.2403ZM36.2144 26.6486C37.7104 24.7663 39.6222 23.8251 41.9494 23.8251C44.429 23.8251 46.2992 24.5587 47.5598 26.0257C48.8203 27.4928 49.4646 29.6589 49.4923 32.5239V46.7037H42.4689V32.6901C42.4689 31.4997 42.2265 30.6278 41.7416 30.0741C41.2568 29.5066 40.4326 29.223 39.2688 29.223C37.8281 29.223 36.81 29.6796 36.2144 30.5931V46.7037H29.2118V14.8148H36.2144V26.6486ZM66.0534 46.7037C65.804 46.2469 65.5824 45.5756 65.3885 44.6899C64.1001 46.3092 62.2992 47.1189 59.9858 47.1189C57.8664 47.1189 56.0655 46.4823 54.5832 45.2089C53.101 43.9218 52.3598 42.3093 52.3598 40.3716C52.3598 37.9356 53.2603 36.0949 55.0612 34.8491C56.8621 33.6035 59.4802 32.9807 62.9156 32.9807H65.0767V31.7973C65.0767 29.735 64.1832 28.7039 62.3962 28.7039C60.7339 28.7039 59.9027 29.5205 59.9027 31.1538H52.9001C52.9001 28.9808 53.8213 27.2161 55.6638 25.8596C57.52 24.5033 59.8819 23.8251 62.7495 23.8251C65.617 23.8251 67.8819 24.5241 69.5443 25.9219C71.2066 27.3198 72.0586 29.2368 72.1001 31.6727V41.6173C72.1278 43.6794 72.4465 45.2573 73.056 46.3508V46.7037H66.0534ZM61.6689 42.1363C62.5416 42.1363 63.262 41.9494 63.83 41.5757C64.4118 41.202 64.8273 40.7798 65.0767 40.3092V36.7176H63.0404C60.6023 36.7176 59.3832 37.8111 59.3832 39.9979C59.3832 40.6345 59.5979 41.1535 60.0273 41.555C60.4568 41.9426 61.004 42.1363 61.6689 42.1363ZM82.4274 24.2403L82.656 26.8769C84.2075 24.8424 86.3479 23.8251 89.0768 23.8251C91.418 23.8251 93.1634 24.5241 94.3131 25.9219C95.4769 27.3198 96.0793 29.4236 96.121 32.2333V46.7037H89.0976V32.5239C89.0976 31.389 88.869 30.5585 88.4118 30.0327C87.9547 29.4928 87.1236 29.223 85.9184 29.223C84.547 29.223 83.5287 29.7627 82.8637 30.8423V46.7037H75.8612V24.2403H82.4274ZM99.1963 35.3059C99.1963 33.036 99.5703 31.0291 100.318 29.2852C101.066 27.5412 102.14 26.1987 103.539 25.2575C104.938 24.3025 106.566 23.8251 108.422 23.8251C110.763 23.8251 112.592 24.614 113.908 26.1919L114.157 24.2403H120.516V45.8524C120.516 47.8317 120.051 49.5479 119.124 51.0013C118.209 52.4683 116.879 53.5894 115.135 54.3645C113.389 55.1534 111.366 55.5479 109.067 55.5479C107.418 55.5479 105.818 55.2364 104.267 54.6137C102.729 53.9908 101.551 53.1811 100.734 52.1847L103.664 48.0739C104.966 49.6102 106.684 50.3784 108.817 50.3784C111.92 50.3784 113.472 48.7867 113.472 45.6034V44.8974C112.128 46.3784 110.431 47.1189 108.381 47.1189C105.638 47.1189 103.421 46.074 101.731 43.984C100.041 41.8803 99.1963 39.0706 99.1963 35.5551V35.3059ZM106.22 35.7418C106.22 37.5827 106.566 39.0429 107.259 40.1225C107.951 41.1881 108.921 41.721 110.168 41.721C111.678 41.721 112.779 41.2159 113.472 40.2055V30.7593C112.793 29.735 111.705 29.223 110.209 29.223C108.963 29.223 107.986 29.7835 107.279 30.9046C106.573 32.0119 106.22 33.6243 106.22 35.7418ZM135.373 47.1189C131.924 47.1189 129.132 46.0946 126.999 44.0463C124.866 41.984 123.799 39.3058 123.799 36.0118V35.4305C123.799 33.1329 124.222 31.1052 125.067 29.3475C125.926 27.5897 127.172 26.2333 128.807 25.2783C130.441 24.3095 132.38 23.8251 134.625 23.8251C137.783 23.8251 140.278 24.8077 142.106 26.7732C143.934 28.7246 144.848 31.4513 144.848 34.953V37.6726H130.926C131.175 38.9321 131.722 39.9217 132.567 40.6415C133.412 41.3613 134.507 41.721 135.852 41.721C138.068 41.721 139.799 40.9459 141.045 39.3958L144.246 43.1744C143.373 44.3784 142.133 45.3404 140.527 46.0602C138.934 46.766 137.215 47.1189 135.373 47.1189ZM134.584 29.223C132.534 29.223 131.313 30.5793 130.926 33.2922H137.992V32.7523C138.019 31.6312 137.735 30.7661 137.139 30.1572C136.543 29.5343 135.692 29.223 134.584 29.223Z" fill="#212121"/>
<path d="M160.259 28.3153L162.671 35.8264L165.076 28.3153H168.504V39.1111H165.892V36.59L166.144 31.4295L163.531 39.1111H161.811L159.191 31.422L159.443 36.59V39.1111H156.838V28.3153H160.259ZM174.629 35.6113L175.965 31.0884H178.643L175.371 40.4531L175.23 40.7942C174.765 41.8322 173.944 42.3513 172.766 42.3513C172.439 42.3513 172.096 42.3018 171.734 42.2029V40.4161H172.061C172.412 40.4161 172.679 40.3641 172.863 40.2603C173.05 40.1614 173.19 39.981 173.278 39.7191L173.479 39.1852L170.688 31.0884H173.36L174.629 35.6113Z" fill="#212121"/>
<path d="M178.516 20.8888H156.478V22.4073H178.516V20.8888Z" fill="#212121"/>
<path d="M178.516 46.7036H156.478V48.2221H178.516V46.7036Z" fill="#212121"/>
<path d="M200.257 16.4757L207.011 37.5064L213.744 16.4757H223.344V46.7036H216.029V39.645L216.735 25.1952L209.422 46.7036H204.601L197.266 25.1745L197.973 39.645V46.7036H190.679V16.4757H200.257Z" fill="#212121"/>
<path d="M235.063 46.7037H228.04V24.2403H235.063V46.7037ZM227.624 18.448C227.624 17.4514 227.984 16.6349 228.704 15.9982C229.425 15.3615 230.359 15.0432 231.51 15.0432C232.659 15.0432 233.595 15.3615 234.316 15.9982C235.036 16.6349 235.396 17.4514 235.396 18.448C235.396 19.4445 235.036 20.2611 234.316 20.8977C233.595 21.5344 232.659 21.8529 231.51 21.8529C230.359 21.8529 229.425 21.5344 228.704 20.8977C227.984 20.2611 227.624 19.4445 227.624 18.448Z" fill="#212121"/>
<path d="M245.827 24.2402L246.055 26.8768C247.607 24.8423 249.747 23.8251 252.476 23.8251C254.817 23.8251 256.563 24.524 257.712 25.9218C258.876 27.3198 259.478 29.4235 259.521 32.2333V46.7037H252.498V32.5239C252.498 31.389 252.268 30.5585 251.811 30.0326C251.355 29.4928 250.523 29.223 249.318 29.223C247.946 29.223 246.927 29.7626 246.263 30.8423V46.7037H239.261V24.2402H245.827Z" fill="#212121"/>
<path d="M262.533 35.3059C262.533 31.7489 263.302 28.9462 264.84 26.8977C266.377 24.8493 268.524 23.8251 271.281 23.8251C273.291 23.8251 274.981 24.614 276.352 26.1919V14.8148H283.375V46.7037H277.078L276.726 44.2953C275.285 46.1777 273.456 47.1189 271.24 47.1189C268.566 47.1189 266.447 46.0946 264.881 44.0463C263.316 41.9978 262.533 39.0844 262.533 35.3059ZM269.537 35.7418C269.537 39.7279 270.699 41.721 273.026 41.721C274.578 41.721 275.686 41.0705 276.352 39.7696V31.216C275.715 29.8873 274.621 29.223 273.069 29.223C270.908 29.223 269.737 30.9668 269.556 34.4547L269.537 35.7418Z" fill="#212121"/>
<path d="M366.777 52.4614L369.256 43.2206C371.293 42.1921 373.039 40.6708 374.337 38.7953C375.635 36.9196 376.442 34.7494 376.686 32.4822C376.93 30.2151 376.601 27.923 375.732 25.8149C374.863 23.7067 373.478 21.8496 371.707 20.4124C369.935 18.9753 367.832 18.0039 365.587 17.5869C363.344 17.1699 361.032 17.3204 358.86 18.0247C356.69 18.729 354.731 19.9648 353.161 21.6194C351.589 23.2739 350.458 25.2948 349.87 27.4978L349.476 28.9647L344.967 34.0457L347.51 36.2986L346.329 40.6989C346.121 41.4769 346.23 42.3058 346.633 43.0034C347.036 43.7011 347.7 44.2101 348.479 44.4186L354.351 45.9905L353.565 48.9241" fill="white"/>
<path d="M366.777 52.4614L369.256 43.2206C371.293 42.1921 373.039 40.6708 374.337 38.7953C375.635 36.9196 376.442 34.7494 376.686 32.4822C376.93 30.2151 376.601 27.923 375.732 25.8149C374.863 23.7067 373.478 21.8496 371.707 20.4124C369.935 18.9753 367.832 18.0039 365.587 17.5869C363.344 17.1699 361.032 17.3204 358.86 18.0247C356.69 18.729 354.731 19.9648 353.161 21.6194C351.589 23.2739 350.458 25.2948 349.87 27.4978L349.476 28.9647L344.967 34.0457L347.51 36.2986L346.329 40.6989C346.121 41.4769 346.23 42.3058 346.633 43.0034C347.036 43.7011 347.7 44.2101 348.479 44.4186L354.351 45.9905L353.565 48.9241" stroke="#0F0F0F" stroke-width="2" stroke-miterlimit="10" stroke-linecap="square"/>
<path d="M356.729 30.9988C357.568 30.9988 358.249 30.319 358.249 29.4803C358.249 28.6418 357.568 27.9618 356.729 27.9618C355.89 27.9618 355.209 28.6418 355.209 29.4803C355.209 30.319 355.89 30.9988 356.729 30.9988Z" fill="#CF3636"/>
<path d="M310.802 41.8319L308.325 32.5911C306.287 31.5626 304.541 30.0413 303.243 28.1658C301.945 26.2901 301.138 24.1199 300.893 21.8527C300.65 19.5856 300.978 17.2935 301.847 15.1854C302.717 13.0772 304.101 11.22 305.873 9.78292C307.644 8.3458 309.749 7.3744 311.992 6.95742C314.236 6.54043 316.549 6.69092 318.719 7.39521C320.89 8.09949 322.849 9.33526 324.42 10.9898C325.99 12.6444 327.121 14.6653 327.709 16.8683L328.103 18.3352L332.612 23.4162L330.07 25.6691L331.25 30.0694C331.459 30.8474 331.349 31.6763 330.946 32.3739C330.544 33.0715 329.88 33.5805 329.101 33.789L323.229 35.361L324.014 38.2946" fill="white"/>
<path d="M310.802 41.8319L308.325 32.5911C306.287 31.5626 304.541 30.0413 303.243 28.1658C301.945 26.2901 301.138 24.1199 300.893 21.8527C300.65 19.5856 300.978 17.2935 301.847 15.1854C302.717 13.0772 304.101 11.22 305.873 9.78292C307.644 8.3458 309.749 7.3744 311.992 6.95742C314.236 6.54043 316.549 6.69092 318.719 7.39521C320.89 8.09949 322.849 9.33526 324.42 10.9898C325.99 12.6444 327.121 14.6653 327.709 16.8683L328.103 18.3352L332.612 23.4162L330.07 25.6691L331.25 30.0694C331.459 30.8474 331.349 31.6763 330.946 32.3739C330.544 33.0715 329.88 33.5805 329.101 33.789L323.229 35.361L324.014 38.2946" stroke="#0F0F0F" stroke-width="2" stroke-miterlimit="10" stroke-linecap="square"/>
<path d="M321.773 20.3692C322.612 20.3692 323.293 19.6894 323.293 18.8507C323.293 18.0121 322.612 17.3322 321.773 17.3322C320.934 17.3322 320.253 18.0121 320.253 18.8507C320.253 19.6894 320.934 20.3692 321.773 20.3692Z" fill="#CF3636"/>
<path d="M322.92 40.1773L312.881 42.863L312.09 39.9086L322.128 37.2229L322.92 40.1773Z" fill="white"/>
</svg>
